<?xml version="1.0" encoding="UTF-8" standalone="no"?>
<!-- Created with Inkscape (http://www.inkscape.org/) -->

<svg
   xmlns:dc="http://purl.org/dc/elements/1.1/"
   xmlns:cc="http://creativecommons.org/ns#"
   xmlns:rdf="http://www.w3.org/1999/02/22-rdf-syntax-ns#"
   xmlns:svg="http://www.w3.org/2000/svg"
   xmlns="http://www.w3.org/2000/svg"
   xmlns:sodipodi="http://sodipodi.sourceforge.net/DTD/sodipodi-0.dtd"
   xmlns:inkscape="http://www.inkscape.org/namespaces/inkscape"
   version="1.1"
   id="svg2"
   xml:space="preserve"
   width="777.77734"
   height="133.33333"
   viewBox="0 0 777.77734 133.33333"
   sodipodi:docname="logo.svg"
   inkscape:version="0.92.2 (5c3e80d, 2017-08-06)"><metadata
     id="metadata8"><rdf:RDF><cc:Work
         rdf:about=""><dc:format>image/svg+xml</dc:format><dc:type
           rdf:resource="http://purl.org/dc/dcmitype/StillImage" /><dc:title></dc:title></cc:Work></rdf:RDF></metadata><defs
     id="defs6"><clipPath
       clipPathUnits="userSpaceOnUse"
       id="clipPath22"><path
         d="m 0,2.146 h 581 v 97.85 H 0 Z"
         id="path20"
         inkscape:connector-curvature="0" /></clipPath><clipPath
       clipPathUnits="userSpaceOnUse"
       id="clipPath46"><path
         d="m 0,2.146 h 581 v 97.85 H 0 Z"
         id="path44"
         inkscape:connector-curvature="0" /></clipPath></defs><sodipodi:namedview
     pagecolor="#ffffff"
     bordercolor="#666666"
     borderopacity="1"
     objecttolerance="10"
     gridtolerance="10"
     guidetolerance="10"
     inkscape:pageopacity="0"
     inkscape:pageshadow="2"
     inkscape:window-width="953"
     inkscape:window-height="506"
     id="namedview4"
     showgrid="false"
     inkscape:zoom="0.87300049"
     inkscape:cx="388.88867"
     inkscape:cy="66.666664"
     inkscape:window-x="0"
     inkscape:window-y="0"
     inkscape:window-maximized="0"
     inkscape:current-layer="g10" /><g
     id="g10"
     inkscape:groupmode="layer"
     inkscape:label="logo"
     transform="matrix(1.3333333,0,0,-1.3333333,0,133.33333)"><g
       id="g12"
       transform="translate(145.428,74.4137)"><path
         d="M 0,0 -15.957,-47.343 -31.783,0 h -21.23 l 27.826,-71.21 H -6.99 L 20.837,0 Z"
         style="fill:#1d1d1b;fill-opacity:1;fill-rule:nonzero;stroke:none"
         id="path14"
         inkscape:connector-curvature="0" /></g><g
       id="g16"><g
         id="g18"
         clip-path="url(#clipPath22)"><g
           id="g24"
           transform="translate(198.5717,2.4103)"><path
             d="m 0,0 c -3.343,0 -6.487,0.46 -9.43,1.383 -2.947,0.924 -5.517,2.31 -7.713,4.157 -2.2,1.847 -3.934,4.107 -5.21,6.79 -1.277,2.68 -1.914,5.78 -1.914,9.297 v 0.263 c 0,3.87 0.707,7.21 2.114,10.023 1.403,2.814 3.36,5.144 5.866,6.99 2.504,1.847 5.494,3.23 8.97,4.154 3.47,0.923 7.317,1.383 11.537,1.383 3.603,0 6.747,-0.263 9.43,-0.79 2.68,-0.527 5.297,-1.233 7.847,-2.11 v 1.187 c 0,4.22 -1.277,7.426 -3.827,9.626 -2.55,2.197 -6.33,3.297 -11.34,3.297 -3.87,0 -7.277,-0.33 -10.22,-0.99 -2.947,-0.657 -6.047,-1.603 -9.297,-2.833 L -18.2,67.123 c 3.87,1.67 7.913,3.034 12.133,4.09 4.22,1.054 9.317,1.58 15.297,1.58 5.54,0 10.263,-0.68 14.18,-2.043 3.91,-1.363 7.14,-3.32 9.69,-5.87 2.637,-2.637 4.573,-5.867 5.803,-9.69 1.23,-3.827 1.847,-8.11 1.847,-12.857 V 1.32 H 21.363 V 8.967 C 18.9,6.24 15.957,4.067 12.527,2.44 9.1,0.813 4.923,0 0,0 m 6.067,13.847 c 4.746,0 8.55,1.143 11.406,3.43 2.857,2.283 4.284,5.273 4.284,8.966 v 3.56 C 20,30.593 18.043,31.23 15.89,31.717 13.737,32.197 11.427,32.44 8.967,32.44 4.66,32.44 1.273,31.603 -1.187,29.933 -3.647,28.263 -4.88,25.847 -4.88,22.68 v -0.263 c 0,-2.724 1.01,-4.834 3.033,-6.327 2.024,-1.497 4.66,-2.243 7.914,-2.243"
             style="fill:#1d1d1b;fill-opacity:1;fill-rule:nonzero;stroke:none"
             id="path26"
             inkscape:connector-curvature="0" /></g><g
           id="g28"
           transform="translate(286.2667,2.4103)"><path
             d="m 0,0 c -4.13,0 -8.133,0.79 -12,2.373 -3.867,1.584 -7.297,3.934 -10.287,7.057 -2.99,3.117 -5.383,6.943 -7.186,11.473 -1.804,4.527 -2.7,9.734 -2.7,15.627 v 0.263 c 0,5.887 0.896,11.097 2.7,15.627 1.803,4.527 4.176,8.35 7.123,11.473 2.943,3.12 6.35,5.474 10.22,7.054 3.867,1.583 7.913,2.376 12.13,2.376 5.363,0 9.78,-1.056 13.253,-3.166 3.474,-2.11 6.397,-4.574 8.77,-7.387 V 97.587 H 42.067 V 1.32 H 22.023 V 11.473 C 19.563,8.13 16.593,5.383 13.123,3.23 9.647,1.077 5.277,0 0,0 m 5.143,17.01 c 2.374,0 4.594,0.463 6.66,1.387 2.064,0.923 3.867,2.24 5.407,3.956 1.537,1.714 2.77,3.777 3.693,6.197 0.924,2.417 1.384,5.077 1.384,7.98 v 0.263 c 0,2.9 -0.46,5.56 -1.384,7.977 -0.923,2.417 -2.156,4.483 -3.693,6.2 -1.54,1.713 -3.343,3.033 -5.407,3.957 C 9.737,55.85 7.517,56.31 5.143,56.31 2.77,56.31 0.55,55.85 -1.517,54.927 -3.58,54.003 -5.403,52.683 -6.987,50.97 -8.57,49.253 -9.823,47.21 -10.747,44.837 -11.67,42.463 -12.13,39.78 -12.13,36.793 V 36.53 c 0,-2.903 0.46,-5.563 1.383,-7.98 0.924,-2.42 2.177,-4.483 3.76,-6.197 1.584,-1.716 3.407,-3.033 5.47,-3.956 C 0.55,17.473 2.77,17.01 5.143,17.01"
             style="fill:#1d1d1b;fill-opacity:1;fill-rule:nonzero;stroke:none"
             id="path30"
             inkscape:connector-curvature="0" /></g><g
           id="g32"
           transform="translate(380.4236,2.1467)"><path
             d="m 0,0 c -5.277,0 -10.177,0.88 -14.703,2.637 -4.53,1.756 -8.44,4.263 -11.737,7.516 -3.297,3.254 -5.87,7.1 -7.717,11.54 -1.846,4.437 -2.766,9.384 -2.766,14.837 v 0.263 c 0,5.01 0.856,9.757 2.57,14.24 1.713,4.487 4.11,8.397 7.19,11.74 3.073,3.34 6.743,5.977 11.01,7.91 4.26,1.934 8.986,2.904 14.176,2.904 5.89,0 10.987,-1.057 15.297,-3.167 4.307,-2.11 7.89,-4.943 10.747,-8.507 2.856,-3.56 4.963,-7.646 6.33,-12.263 1.363,-4.617 2.043,-9.43 2.043,-14.44 0,-0.79 -0.023,-1.627 -0.063,-2.507 -0.047,-0.876 -0.114,-1.803 -0.2,-2.766 h -49.19 c 0.966,-4.574 2.966,-8.027 6,-10.354 3.036,-2.33 6.793,-3.493 11.276,-3.493 3.34,0 6.33,0.57 8.97,1.713 2.634,1.14 5.36,2.987 8.174,5.537 L 28.88,13.187 C 25.54,9.053 21.493,5.823 16.747,3.493 12,1.167 6.417,0 0,0 m 12.923,42.463 c -0.616,4.484 -2.196,8.11 -4.746,10.88 -2.55,2.77 -5.934,4.154 -10.154,4.154 -4.223,0 -7.63,-1.364 -10.223,-4.087 -2.593,-2.727 -4.283,-6.377 -5.077,-10.947 z"
             style="fill:#1d1d1b;fill-opacity:1;fill-rule:nonzero;stroke:none"
             id="path34"
             inkscape:connector-curvature="0" /></g></g></g><path
       d="m 426.31,3.727 h 23.883 V 27.464 H 426.31 Z"
       style="fill:#009ee2;fill-opacity:1;fill-rule:nonzero;stroke:none"
       id="path36"
       inkscape:connector-curvature="0" /><path
       d="m 467.857,82.193 h 21.1 V 100 h -21.1 z M 468.38,3.727 h 20.047 V 74.413 H 468.38 Z"
       style="fill:#1d1d1b;fill-opacity:1;fill-rule:nonzero;stroke:none"
       id="path38"
       inkscape:connector-curvature="0" /><g
       id="g40"><g
         id="g42"
         clip-path="url(#clipPath46)"><g
           id="g48"
           transform="translate(542.6246,2.1467)"><path
             d="m 0,0 c -5.45,0 -10.507,0.947 -15.167,2.837 -4.66,1.886 -8.68,4.48 -12.063,7.78 -3.387,3.296 -6.047,7.163 -7.98,11.603 -1.933,4.44 -2.9,9.21 -2.9,14.31 v 0.263 c 0,5.097 0.967,9.867 2.9,14.307 1.933,4.44 4.613,8.33 8.043,11.673 3.43,3.34 7.474,5.977 12.134,7.91 4.66,1.934 9.76,2.904 15.296,2.904 5.45,0 10.504,-0.947 15.167,-2.837 4.657,-1.89 8.68,-4.483 12.067,-7.78 3.383,-3.297 6.043,-7.167 7.976,-11.607 1.934,-4.44 2.904,-9.21 2.904,-14.306 v -0.264 c 0,-5.1 -0.97,-9.87 -2.904,-14.31 C 33.54,18.043 30.857,14.153 27.43,10.813 24,7.47 19.957,4.833 15.297,2.9 10.637,0.967 5.54,0 0,0 m 0.263,17.273 c 2.9,0 5.474,0.507 7.714,1.52 2.243,1.01 4.156,2.394 5.736,4.154 1.584,1.756 2.794,3.8 3.627,6.13 0.837,2.33 1.257,4.813 1.257,7.453 v 0.263 c 0,2.637 -0.444,5.12 -1.32,7.45 -0.88,2.33 -2.157,4.397 -3.824,6.197 -1.673,1.803 -3.65,3.233 -5.936,4.287 C 5.23,55.783 2.723,56.31 0,56.31 c -2.9,0 -5.473,-0.507 -7.713,-1.517 -2.244,-1.013 -4.157,-2.396 -5.737,-4.153 -1.583,-1.76 -2.793,-3.803 -3.627,-6.133 -0.84,-2.33 -1.253,-4.814 -1.253,-7.45 v -0.264 c 0,-2.64 0.44,-5.123 1.317,-7.453 0.88,-2.33 2.153,-4.397 3.826,-6.197 1.667,-1.803 3.627,-3.23 5.87,-4.286 2.24,-1.054 4.767,-1.584 7.58,-1.584"
             style="fill:#1d1d1b;fill-opacity:1;fill-rule:nonzero;stroke:none"
             id="path50"
             inkscape:connector-curvature="0" /></g></g></g><path
       d="m 23.74,3.203 h 23.737 v 23.74 H 23.74 Z"
       style="fill:#ffec00;fill-opacity:1;fill-rule:nonzero;stroke:none"
       id="path52"
       inkscape:connector-curvature="0" /><path
       d="m 47.473,50.677 h 23.74 V 26.94 h -23.74 z"
       style="fill:#e5007e;fill-opacity:1;fill-rule:nonzero;stroke:none"
       id="path54"
       inkscape:connector-curvature="0" /><path
       d="m 47.473,74.413 h 23.74 V 50.676 h -23.74 z"
       style="fill:#e32213;fill-opacity:1;fill-rule:nonzero;stroke:none"
       id="path56"
       inkscape:connector-curvature="0" /><path
       d="M 23.74,74.413 H 47.477 V 50.676 H 23.74 Z"
       style="fill:#941b80;fill-opacity:1;fill-rule:nonzero;stroke:none"
       id="path58"
       inkscape:connector-curvature="0" /><path
       d="m 0,3.203 h 23.74 v 23.74 H 0 Z"
       style="fill:#009ee2;fill-opacity:1;fill-rule:nonzero;stroke:none"
       id="path60"
       inkscape:connector-curvature="0" /><path
       d="M 0,26.943 H 23.74 V 50.68 H 0 Z"
       style="fill:#93c01f;fill-opacity:1;fill-rule:nonzero;stroke:none"
       id="path62"
       inkscape:connector-curvature="0" /></g></svg>