<svg xmlns="http://www.w3.org/2000/svg" xml:space="preserve" width="777.777" height="133.333"><defs><clipPath id="a" clipPathUnits="userSpaceOnUse"><path d="M0 2.146h581v97.85H0Z"/></clipPath><clipPath id="b" clipPathUnits="userSpaceOnUse"><path d="M0 2.146h581v97.85H0Z"/></clipPath></defs><g style="fill:#fff"><path d="m0 0-15.957-47.343L-31.783 0h-21.23l27.826-71.21H-6.99L20.837 0Z" style="fill:#fff;fill-opacity:1;fill-rule:nonzero;stroke:none" transform="matrix(1.33333 0 0 -1.33333 193.904 34.115)"/></g><g clip-path="url(#a)" style="fill:#fff" transform="matrix(1.33333 0 0 -1.33333 0 133.333)"><g style="fill:#fff"><path d="M0 0c-3.343 0-6.487.46-9.43 1.383-2.947.924-5.517 2.31-7.713 4.157-2.2 1.847-3.934 4.107-5.21 6.79-1.277 2.68-1.914 5.78-1.914 9.297v.263c0 3.87.707 7.21 2.114 10.023a19.194 19.194 0 0 0 5.866 6.99c2.504 1.847 5.494 3.23 8.97 4.154C-3.847 43.98 0 44.44 4.22 44.44c3.603 0 6.747-.263 9.43-.79a59.273 59.273 0 0 0 7.847-2.11v1.187c0 4.22-1.277 7.426-3.827 9.626-2.55 2.197-6.33 3.297-11.34 3.297-3.87 0-7.277-.33-10.22-.99-2.947-.657-6.047-1.603-9.297-2.833L-18.2 67.123a78.907 78.907 0 0 0 12.133 4.09c4.22 1.054 9.317 1.58 15.297 1.58 5.54 0 10.263-.68 14.18-2.043 3.91-1.363 7.14-3.32 9.69-5.87 2.637-2.637 4.573-5.867 5.803-9.69 1.23-3.827 1.847-8.11 1.847-12.857V1.32H21.363v7.647c-2.463-2.727-5.406-4.9-8.836-6.527C9.1.813 4.923 0 0 0m6.067 13.847c4.746 0 8.55 1.143 11.406 3.43 2.857 2.283 4.284 5.273 4.284 8.966v3.56c-1.757.79-3.714 1.427-5.867 1.914-2.153.48-4.463.723-6.923.723-4.307 0-7.694-.837-10.154-2.507-2.46-1.67-3.693-4.086-3.693-7.253v-.263c0-2.724 1.01-4.834 3.033-6.327 2.024-1.497 4.66-2.243 7.914-2.243" style="fill:#fff;fill-opacity:1;fill-rule:nonzero;stroke:none" transform="translate(198.572 2.41)"/></g><g style="fill:#fff"><path d="M0 0c-4.13 0-8.133.79-12 2.373-3.867 1.584-7.297 3.934-10.287 7.057-2.99 3.117-5.383 6.943-7.186 11.473-1.804 4.527-2.7 9.734-2.7 15.627v.263c0 5.887.896 11.097 2.7 15.627 1.803 4.527 4.176 8.35 7.123 11.473 2.943 3.12 6.35 5.474 10.22 7.054A31.726 31.726 0 0 0 0 73.323c5.363 0 9.78-1.056 13.253-3.166 3.474-2.11 6.397-4.574 8.77-7.387v34.817h20.044V1.32H22.023v10.153a31.748 31.748 0 0 0-8.9-8.243C9.647 1.077 5.277 0 0 0m5.143 17.01c2.374 0 4.594.463 6.66 1.387a15.937 15.937 0 0 1 5.407 3.956c1.537 1.714 2.77 3.777 3.693 6.197.924 2.417 1.384 5.077 1.384 7.98v.263c0 2.9-.46 5.56-1.384 7.977-.923 2.417-2.156 4.483-3.693 6.2a15.993 15.993 0 0 1-5.407 3.957c-2.066.923-4.286 1.383-6.66 1.383-2.373 0-4.593-.46-6.66-1.383-2.063-.924-3.886-2.244-5.47-3.957-1.583-1.717-2.836-3.76-3.76-6.133-.923-2.374-1.383-5.057-1.383-8.044v-.263c0-2.903.46-5.563 1.383-7.98.924-2.42 2.177-4.483 3.76-6.197 1.584-1.716 3.407-3.033 5.47-3.956 2.067-.924 4.287-1.387 6.66-1.387" style="fill:#fff;fill-opacity:1;fill-rule:nonzero;stroke:none" transform="translate(286.267 2.41)"/></g><g style="fill:#fff"><path d="M0 0c-5.277 0-10.177.88-14.703 2.637-4.53 1.756-8.44 4.263-11.737 7.516-3.297 3.254-5.87 7.1-7.717 11.54-1.846 4.437-2.766 9.384-2.766 14.837v.263c0 5.01.856 9.757 2.57 14.24 1.713 4.487 4.11 8.397 7.19 11.74 3.073 3.34 6.743 5.977 11.01 7.91 4.26 1.934 8.986 2.904 14.176 2.904 5.89 0 10.987-1.057 15.297-3.167 4.307-2.11 7.89-4.943 10.747-8.507 2.856-3.56 4.963-7.646 6.33-12.263 1.363-4.617 2.043-9.43 2.043-14.44 0-.79-.023-1.627-.063-2.507a78.54 78.54 0 0 0-.2-2.766h-49.19c.966-4.574 2.966-8.027 6-10.354C-7.977 17.253-4.22 16.09.263 16.09c3.34 0 6.33.57 8.97 1.713 2.634 1.14 5.36 2.987 8.174 5.537L28.88 13.187a35.581 35.581 0 0 0-12.133-9.694C12 1.167 6.417 0 0 0m12.923 42.463c-.616 4.484-2.196 8.11-4.746 10.88-2.55 2.77-5.934 4.154-10.154 4.154-4.223 0-7.63-1.364-10.223-4.087-2.593-2.727-4.283-6.377-5.077-10.947z" style="fill:#fff;fill-opacity:1;fill-rule:nonzero;stroke:none" transform="translate(380.424 2.147)"/></g></g><path d="M426.31 3.727h23.883v23.737H426.31Z" style="fill:#009ee2;fill-opacity:1;fill-rule:nonzero;stroke:none" transform="matrix(1.33333 0 0 -1.33333 0 133.333)"/><path d="M467.857 82.193h21.1V100h-21.1zm.523-78.466h20.047v70.686H468.38Z" style="fill:#fff;fill-opacity:1;fill-rule:nonzero;stroke:none" transform="matrix(1.33333 0 0 -1.33333 0 133.333)"/><g clip-path="url(#b)" style="fill:#fff" transform="matrix(1.33333 0 0 -1.33333 0 133.333)"><g style="fill:#fff"><path d="M0 0c-5.45 0-10.507.947-15.167 2.837-4.66 1.886-8.68 4.48-12.063 7.78-3.387 3.296-6.047 7.163-7.98 11.603-1.933 4.44-2.9 9.21-2.9 14.31v.263c0 5.097.967 9.867 2.9 14.307 1.933 4.44 4.613 8.33 8.043 11.673 3.43 3.34 7.474 5.977 12.134 7.91 4.66 1.934 9.76 2.904 15.296 2.904 5.45 0 10.504-.947 15.167-2.837 4.657-1.89 8.68-4.483 12.067-7.78 3.383-3.297 6.043-7.167 7.976-11.607 1.934-4.44 2.904-9.21 2.904-14.306v-.264c0-5.1-.97-9.87-2.904-14.31-1.933-4.44-4.616-8.33-8.043-11.67C24 7.47 19.957 4.833 15.297 2.9 10.637.967 5.54 0 0 0m.263 17.273c2.9 0 5.474.507 7.714 1.52 2.243 1.01 4.156 2.394 5.736 4.154 1.584 1.756 2.794 3.8 3.627 6.13.837 2.33 1.257 4.813 1.257 7.453v.263c0 2.637-.444 5.12-1.32 7.45a18.82 18.82 0 0 1-3.824 6.197 18.679 18.679 0 0 1-5.936 4.287C5.23 55.783 2.723 56.31 0 56.31c-2.9 0-5.473-.507-7.713-1.517-2.244-1.013-4.157-2.396-5.737-4.153-1.583-1.76-2.793-3.803-3.627-6.133-.84-2.33-1.253-4.814-1.253-7.45v-.264c0-2.64.44-5.123 1.317-7.453a18.727 18.727 0 0 1 3.826-6.197 18.85 18.85 0 0 1 5.87-4.286c2.24-1.054 4.767-1.584 7.58-1.584" style="fill:#fff;fill-opacity:1;fill-rule:nonzero;stroke:none" transform="translate(542.625 2.147)"/></g></g><path d="M23.74 3.203h23.737v23.74H23.74Z" style="fill:#ffec00;fill-opacity:1;fill-rule:nonzero;stroke:none" transform="matrix(1.33333 0 0 -1.33333 0 133.333)"/><path d="M47.473 50.677h23.74V26.94h-23.74z" style="fill:#e5007e;fill-opacity:1;fill-rule:nonzero;stroke:none" transform="matrix(1.33333 0 0 -1.33333 0 133.333)"/><path d="M47.473 74.413h23.74V50.676h-23.74z" style="fill:#e32213;fill-opacity:1;fill-rule:nonzero;stroke:none" transform="matrix(1.33333 0 0 -1.33333 0 133.333)"/><path d="M23.74 74.413h23.737V50.676H23.74Z" style="fill:#941b80;fill-opacity:1;fill-rule:nonzero;stroke:none" transform="matrix(1.33333 0 0 -1.33333 0 133.333)"/><path d="M0 3.203h23.74v23.74H0Z" style="fill:#009ee2;fill-opacity:1;fill-rule:nonzero;stroke:none" transform="matrix(1.33333 0 0 -1.33333 0 133.333)"/><path d="M0 26.943h23.74V50.68H0Z" style="fill:#93c01f;fill-opacity:1;fill-rule:nonzero;stroke:none" transform="matrix(1.33333 0 0 -1.33333 0 133.333)"/></svg>